{
   "accessors" : [
      {
         "bufferView" : 2,
         "byteOffset" : 0,
         "componentType" : 5126,
         "count" : 1448,
         "max" : [ 1, 1, 1, 1 ],
         "min" : [ 5.692175545846112e-05, 0.05284162610769272, 0.0328759141266346, 1 ],
         "name" : "accessor_color_m0-PolyPaper21_-117960",
         "type" : "VEC4"
      },
      {
         "bufferView" : 0,
         "byteOffset" : 0,
         "componentType" : 5123,
         "count" : 2196,
         "max" : [ 1447 ],
         "min" : [ 0 ],
         "name" : "accessor_indices_0_m0-PolyPaper21_-117960",
         "type" : "SCALAR"
      },
      {
         "bufferView" : 1,
         "byteOffset" : 17376,
         "componentType" : 5126,
         "count" : 1448,
         "max" : [ 0.9990745, 0.9973046, 0.9897243999999999 ],
         "min" : [ -0.9984515, -0.9995946999999999, -0.9999722 ],
         "name" : "accessor_normal_m0-PolyPaper21_-117960",
         "type" : "VEC3"
      },
      {
         "bufferView" : 1,
         "byteOffset" : 0,
         "componentType" : 5126,
         "count" : 1448,
         "max" : [ 0.5842397, 2.228232, -0.2723794 ],
         "min" : [ -0.3831773, 1.066434, -1.079496 ],
         "name" : "accessor_position_m0-PolyPaper21_-117960",
         "type" : "VEC3"
      }
   ],
   "asset" : {
      "copyright" : "Unknown",
      "generator" : "glTF 1-to-2 Upgrader for Google Blocks",
      "version" : "2.0"
   },
   "bufferViews" : [
      {
         "buffer" : 0,
         "byteLength" : 4392,
         "byteOffset" : 0,
         "name" : "ushortBufferView",
         "target" : 34963
      },
      {
         "buffer" : 0,
         "byteLength" : 34752,
         "byteOffset" : 4392,
         "byteStride" : 12,
         "name" : "vec3BufferView",
         "target" : 34962
      },
      {
         "buffer" : 0,
         "byteLength" : 23168,
         "byteOffset" : 39144,
         "byteStride" : 16,
         "name" : "vec4BufferView",
         "target" : 34962
      }
   ],
   "buffers" : [
      {
         "byteLength" : 62312,
         "name" : "model",
         "uri" : "model.bin"
      }
   ],
   "materials" : [
      {
         "alphaMode" : "OPAQUE",
         "doubleSided" : false,
         "name" : "BlocksPaper",
         "pbrMetallicRoughness" : {
            "baseColorFactor" : [ 1, 1, 1, 1 ],
            "metallicFactor" : 0,
            "roughnessFactor" : 0.6
         }
      },
      {
         "alphaMode" : "BLEND",
         "doubleSided" : false,
         "name" : "BlocksGlass",
         "pbrMetallicRoughness" : {
            "baseColorFactor" : [ 0.2, 0.2, 1, 0.3 ],
            "metallicFactor" : 1,
            "roughnessFactor" : 0.4
         }
      },
      {
         "alphaMode" : "OPAQUE",
         "doubleSided" : true,
         "name" : "BlocksGem",
         "pbrMetallicRoughness" : {
            "baseColorFactor" : [ 1, 0.4, 1, 1 ],
            "metallicFactor" : 0,
            "roughnessFactor" : 0.1
         }
      }
   ],
   "meshes" : [
      {
         "name" : "mesh_m0-PolyPaper21_-117960",
         "primitives" : [
            {
               "attributes" : {
                  "COLOR_0" : 0,
                  "NORMAL" : 2,
                  "POSITION" : 3
               },
               "indices" : 1,
               "material" : 0,
               "mode" : 4
            }
         ]
      }
   ],
   "nodes" : [
      {
         "mesh" : 0,
         "name" : "node_MeshObject-1862305792-PolyPaper21"
      }
   ],
   "scene" : 0,
   "scenes" : [
      {
         "extras" : {},
         "name" : "defaultScene",
         "nodes" : [ 0 ]
      }
   ]
}
